<svg xmlns="http://www.w3.org/2000/svg" xmlns:xlink="http://www.w3.org/1999/xlink" viewBox="0 0 55 65" fill="#fff" fill-rule="evenodd" stroke="#000" stroke-linecap="round" stroke-linejoin="round"><use xlink:href="#A" x=".5" y=".5"/><symbol id="A" overflow="visible"><path d="M0 .001h31.445c5.92 0 10.543 1.48 13.78 4.07 3.607 2.96 5.642 7.4 5.642 12.67 0 6.104-2.497 9.988-7.584 12.3v.277c6.66 2.22 10.45 8.14 10.45 15.353 0 6.844-2.6 12.208-6.936 15.445C43.2 62.716 38.38 64 32.092 64h-32V0zm28.3 25.064c3.422 0 5.827-1.85 5.827-5.642 0-3.607-2.6-5.457-5.92-5.457h-10.82v11.006H28.3zm1.572 24.786c3.792 0 6.66-2.312 6.66-6.566 0-4.44-3.052-6.566-6.75-6.566H17.387v13.133z" stroke="none" fill="#000" fill-rule="nonzero"/></symbol></svg>